<?xml version="1.0"?>
<svg version="1.1" xmlns="http://www.w3.org/2000/svg" width="150" height="40" style=""><path fill="#c7bf32" d="M15.83056640625,22.267578125q0-0.8701171875,0.072509765625-1.905029296875t0.257080078125-2.076416015625t0.5537109375-2.010498046875t0.94921875-1.72705078125t1.417236328125-1.206298828125t1.997314453125-0.4482421875q0.9228515625,0,1.70068359375,0.35595703125t1.35791015625,0.96240234375t0.903076171875,1.417236328125t0.322998046875,1.694091796875q0,0.2373046875-0.322998046875,0.296630859375t-0.454833984375,0.059326171875q-0.2373046875,0-0.454833984375-0.03955078125t-0.322998046875-0.31640625q-0.1845703125-0.51416015625-0.388916015625-1.0810546875t-0.5009765625-1.034912109375t-0.731689453125-0.771240234375q-0.3955078125-0.263671875-1.001953125-0.263671875l-0.10546875,0q-1.107421875,0.0263671875-1.64794921875,0.791015625t-0.744873046875,1.85888671875t-0.204345703125,2.3203125l0,2.17529296875q0,0.54052734375,0.03955078125,1.56884765625t0.191162109375,2.2412109375t0.3955078125,2.471923828125t0.6591796875,2.2939453125t0.995361328125,1.6875t1.3974609375,0.652587890625q0.72509765625,0,1.265625-0.5009765625t0.929443359375-1.285400390625t0.6591796875-1.75341796875t0.4482421875-1.944580078125t0.270263671875-1.812744140625t0.14501953125-1.377685546875q-0.14501953125-0.01318359375-0.27685546875-0.01318359375q-0.61962890625,0-1.212890625,0.19775390625q-0.75146484375,0.22412109375-1.5029296875,0.22412109375q-0.10546875,0-0.283447265625-0.01318359375t-0.336181640625-0.06591796875t-0.283447265625-0.151611328125t-0.125244140625-0.257080078125q0-0.30322265625,0.665771484375-0.51416015625t1.51611328125-0.362548828125t1.641357421875-0.217529296875t1.04150390625-0.06591796875q0.1318359375,0,0.375732421875,0.0263671875t0.48779296875,0.09228515625t0.415283203125,0.191162109375t0.17138671875,0.309814453125q0,0.158203125-0.11865234375,0.283447265625t-0.296630859375,0.191162109375t-0.362548828125,0.09228515625t-0.2900390625,0.0263671875q0.01318359375,0.30322265625,0.01318359375,0.61962890625q0,0.7119140625-0.03955078125,1.51611328125q-0.06591796875,1.16015625-0.263671875,2.3203125t-0.6064453125,2.25439453125t-1.04150390625,1.931396484375t-1.562255859375,1.351318359375t-2.208251953125,0.51416015625q-1.3974609375,0-2.35986328125-0.59326171875t-1.56884765625-1.58203125t-0.942626953125-2.2412109375t-0.481201171875-2.564208984375t-0.177978515625-2.551025390625t-0.032958984375-2.2412109375z M30.868696289063,32.076171875q0.0263671875-0.5537109375,0.0263671875-1.0810546875q0-1.91162109375,0.138427734375-3.81005859375t0.191162109375-3.81005859375q0.0791015625-2.1884765625,0.14501953125-4.33740234375t0.263671875-4.32421875q0.052734375-0.54052734375,0.309814453125-0.705322265625t0.771240234375-0.164794921875q0.2373046875,0,0.6328125,0.09228515625t0.3955078125,0.4482421875q0.1845703125,0.0263671875,0.369140625,0.0263671875q0.27685546875,0,0.56689453125-0.052734375q0.474609375-0.0791015625,0.968994140625-0.177978515625t0.982177734375-0.191162109375t0.93603515625-0.09228515625q0.10546875,0,0.296630859375,0.01318359375t0.38232421875,0.0791015625t0.322998046875,0.164794921875t0.1318359375,0.257080078125t-0.309814453125,0.283447265625t-0.810791015625,0.217529296875t-1.0810546875,0.158203125t-1.1337890625,0.112060546875t-0.982177734375,0.072509765625t-0.613037109375,0.0263671875l-0.0263671875,4.95703125l0.0263671875,2.46533203125q0.40869140625,0,1.22607421875-0.0263671875q0.32958984375-0.01318359375,0.6591796875-0.01318359375q0.5009765625,0,1.0283203125,0.0263671875q0.8701171875,0.03955078125,1.56884765625,0.158203125t0.88330078125,0.421875q0,0.1845703125-0.191162109375,0.296630859375t-0.428466796875,0.164794921875t-0.481201171875,0.06591796875t-0.349365234375,0.01318359375q-0.9755859375,0-1.96435546875-0.03955078125t-1.951171875-0.158203125q0,1.62158203125-0.085693359375,3.216796875t-0.085693359375,3.216796875q0,0.69873046875,0.01318359375,1.377685546875t0.158203125,1.351318359375q0.35595703125-0.0263671875,0.771240234375-0.06591796875t0.84375-0.098876953125t0.823974609375-0.098876953125t0.685546875-0.03955078125q0.158203125,0,0.428466796875,0.03955078125t0.5537109375,0.1318359375t0.48779296875,0.230712890625t0.204345703125,0.322998046875q0,0.2109375-0.388916015625,0.375732421875t-0.995361328125,0.263671875t-1.324951171875,0.138427734375t-1.390869140625,0.052734375t-1.212890625,0.01318359375l-0.7646484375,0q-0.72509765625,0-1.061279296875-0.270263671875t-0.468017578125-0.705322265625q-0.10546875-0.35595703125-0.09228515625-0.80419921875l0-0.1845703125z M41.028896484375,14.73974609375q0-0.1845703125,0.257080078125-0.283447265625t0.336181640625-0.098876953125l0.48779296875-0.0791015625q0.48779296875-0.0791015625,0.98876953125-0.138427734375t0.9755859375-0.112060546875q1.67431640625-0.2109375,3.3486328125-0.415283203125t3.375-0.204345703125q0.1318359375,0,0.362548828125,0.01318359375t0.46142578125,0.072509765625t0.3955078125,0.164794921875t0.164794921875,0.2900390625q0,0.1318359375-0.125244140625,0.230712890625t-0.296630859375,0.151611328125t-0.349365234375,0.06591796875t-0.283447265625,0.01318359375l-0.230712890625,0t-0.230712890625-0.052734375q-0.69873046875,0-1.377685546875,0.06591796875t-1.377685546875,0.11865234375q0.1845703125,0.2109375,0.19775390625,0.59326171875t0.0263671875,0.6591796875q0,4.6669921875,0.06591796875,9.28125t0.11865234375,9.32080078125l0,0.0263671875q-0.43505859375,0.38232421875-0.744873046875,0.48779296875t-0.626220703125,0.10546875q-0.30322265625,0-0.613037109375-0.112060546875t-0.744873046875-0.481201171875l0-0.0263671875l0.10546875-10.34912109375q0-1.0283203125-0.0263671875-2.267578125t-0.0263671875-2.511474609375t0.03955078125-2.458740234375t0.2109375-2.06982421875q-0.77783203125,0.0791015625-1.64794921875,0.2373046875q-0.75146484375,0.1318359375-1.43701171875,0.1318359375l-0.2373046875,0q-0.052734375,0-0.309814453125,0.01318359375t-0.52734375-0.01318359375t-0.48779296875-0.10546875t-0.217529296875-0.263671875z M53.984018554688,33.19677734375q0-0.0791015625,0.052734375-0.560302734375t0.138427734375-1.17333984375t0.191162109375-1.48974609375t0.1845703125-1.509521484375t0.138427734375-1.25244140625t0.059326171875-0.72509765625q-0.10546875-0.052734375-0.257080078125-0.151611328125t-0.151611328125-0.230712890625q0-0.1845703125,0.177978515625-0.296630859375t0.309814453125-0.164794921875q0.052734375-0.67236328125,0.1318359375-1.8720703125t0.243896484375-2.590576171875t0.46142578125-2.8212890625t0.784423828125-2.59716796875t1.17333984375-1.905029296875t1.6875-0.73828125t1.6611328125,0.6328125t1.074462890625,1.64794921875t0.6328125,2.25439453125t0.32958984375,2.46533203125t0.138427734375,2.2939453125t0.052734375,1.7138671875q0.0263671875,0.40869140625,0.19775390625,0.547119140625t0.375732421875,0.191162109375t0.369140625,0.11865234375t0.164794921875,0.32958984375q0,0.30322265625-0.369140625,0.421875t-0.580078125,0.14501953125q0.1318359375,1.64794921875,0.362548828125,3.2431640625t0.613037109375,3.216796875q0.052734375,0.30322265625,0.14501953125,0.613037109375t0.09228515625,0.599853515625q0,0.2109375-0.14501953125,0.349365234375t-0.375732421875,0.217529296875t-0.46142578125,0.10546875t-0.388916015625,0.0263671875q-0.59326171875,0-1.001953125-0.22412109375t-0.54052734375-0.85693359375q-0.35595703125-1.70068359375-0.69873046875-3.57275390625q-0.2900390625-1.62158203125-0.2900390625-3.15087890625q0-0.2373046875,0.01318359375-0.474609375q-1.107421875,0-2.22802734375,0.052734375t-2.14892578125,0.3955078125q-0.0263671875,0.35595703125-0.1318359375,1.3447265625t-0.2373046875,2.12255859375t-0.270263671875,2.168701171875t-0.164794921875,1.469970703125q-0.0263671875,0.1845703125-0.270263671875,0.349365234375t-0.52734375,0.177978515625t-0.5009765625-0.177978515625t-0.217529296875-0.678955078125z M56.449350585938,25.20751953125q1.0283203125-0.2373046875,2.063232421875-0.27685546875t2.089599609375-0.09228515625q-0.052734375-0.32958984375-0.0263671875-0.678955078125t0.0263671875-0.705322265625q0-0.77783203125-0.03955078125-1.80615234375t-0.11865234375-2.0830078125t-0.204345703125-2.076416015625t-0.283447265625-1.8193359375t-0.336181640625-1.272216796875t-0.388916015625-0.474609375q-0.40869140625,0.0263671875-0.771240234375,0.705322265625t-0.6591796875,1.72705078125t-0.54052734375,2.3466796875t-0.40869140625,2.537841796875t-0.270263671875,2.30712890625t-0.1318359375,1.6611328125z M67.26873046875,16.24267578125q0-0.158203125,0.151611328125-0.2373046875t0.32958984375-0.11865234375t0.322998046875-0.03955078125l0.14501953125,0q0.46142578125,0,0.665771484375,0.2109375t0.494384765625,0.54052734375q1.9775390625,2.86083984375,3.62548828125,5.886474609375t3.17724609375,6.123779296875q0.1318359375-3.6123046875,0.270263671875-7.270751953125t0.349365234375-7.257568359375q0-0.158203125,0.151611328125-0.263671875t0.3427734375-0.158203125t0.388916015625-0.06591796875t0.30322265625-0.01318359375q0.158203125,0,0.349365234375,0.01318359375t0.38232421875,0.0791015625t0.31640625,0.158203125t0.125244140625,0.25048828125q0.052734375,0.56689453125,0.059326171875,1.140380859375t0.006591796875,1.140380859375q0,4.2451171875-0.1845703125,8.31884765625t-0.1845703125,8.2265625l0,0.94921875q0,0.052734375-0.052734375,0.158203125q0.0263671875,0.10546875,0.0791015625,0.230712890625t0.052734375,0.177978515625q0,0.2109375-0.217529296875,0.31640625t-0.474609375,0.164794921875t-0.454833984375,0.059326171875t-0.14501953125,0q-0.67236328125,0-1.1337890625-0.369140625t-0.46142578125-0.88330078125q-0.9755859375-2.1884765625-1.944580078125-4.343994140625t-2.023681640625-4.291259765625q-0.67236328125-1.3447265625-1.351318359375-2.696044921875t-1.456787109375-2.616943359375q0.0263671875,0.0263671875,0.0263671875,0.0791015625q0.1318359375,1.318359375,0.283447265625,2.630126953125t0.230712890625,2.630126953125q0.052734375,1.1337890625,0.11865234375,2.2939453125t0.2109375,2.2939453125q0,0.43505859375-0.270263671875,0.5537109375t-0.626220703125,0.11865234375q-0.30322265625,0-0.573486328125-0.0791015625t-0.322998046875-0.3955078125q0-1.212890625-0.09228515625-2.577392578125t-0.17138671875-2.748779296875q-0.1318359375-1.83251953125-0.349365234375-3.724365234375t-0.217529296875-3.697998046875q0-0.0791015625,0.01318359375-0.164794921875t0.01318359375-0.191162109375q-0.0791015625-0.1318359375-0.177978515625-0.27685546875t-0.098876953125-0.263671875z M81.937719726563,22.267578125q0-0.8701171875,0.072509765625-1.905029296875t0.257080078125-2.076416015625t0.5537109375-2.010498046875t0.94921875-1.72705078125t1.417236328125-1.206298828125t1.997314453125-0.4482421875q0.9228515625,0,1.70068359375,0.35595703125t1.35791015625,0.96240234375t0.903076171875,1.417236328125t0.322998046875,1.694091796875q0,0.2373046875-0.322998046875,0.296630859375t-0.454833984375,0.059326171875q-0.2373046875,0-0.454833984375-0.03955078125t-0.322998046875-0.31640625q-0.1845703125-0.51416015625-0.388916015625-1.0810546875t-0.5009765625-1.034912109375t-0.731689453125-0.771240234375q-0.3955078125-0.263671875-1.001953125-0.263671875l-0.10546875,0q-1.107421875,0.0263671875-1.64794921875,0.791015625t-0.744873046875,1.85888671875t-0.204345703125,2.3203125l0,2.17529296875q0,0.54052734375,0.03955078125,1.56884765625t0.191162109375,2.2412109375t0.3955078125,2.471923828125t0.6591796875,2.2939453125t0.995361328125,1.6875t1.3974609375,0.652587890625q0.72509765625,0,1.265625-0.5009765625t0.929443359375-1.285400390625t0.6591796875-1.75341796875t0.4482421875-1.944580078125t0.270263671875-1.812744140625t0.14501953125-1.377685546875q-0.14501953125-0.01318359375-0.27685546875-0.01318359375q-0.61962890625,0-1.212890625,0.19775390625q-0.75146484375,0.22412109375-1.5029296875,0.22412109375q-0.10546875,0-0.283447265625-0.01318359375t-0.336181640625-0.06591796875t-0.283447265625-0.151611328125t-0.125244140625-0.257080078125q0-0.30322265625,0.665771484375-0.51416015625t1.51611328125-0.362548828125t1.641357421875-0.217529296875t1.04150390625-0.06591796875q0.1318359375,0,0.375732421875,0.0263671875t0.48779296875,0.09228515625t0.415283203125,0.191162109375t0.17138671875,0.309814453125q0,0.158203125-0.11865234375,0.283447265625t-0.296630859375,0.191162109375t-0.362548828125,0.09228515625t-0.2900390625,0.0263671875q0.01318359375,0.30322265625,0.01318359375,0.61962890625q0,0.7119140625-0.03955078125,1.51611328125q-0.06591796875,1.16015625-0.263671875,2.3203125t-0.6064453125,2.25439453125t-1.04150390625,1.931396484375t-1.562255859375,1.351318359375t-2.208251953125,0.51416015625q-1.3974609375,0-2.35986328125-0.59326171875t-1.56884765625-1.58203125t-0.942626953125-2.2412109375t-0.481201171875-2.564208984375t-0.177978515625-2.551025390625t-0.032958984375-2.2412109375z M96.975849609375,32.076171875q0.0263671875-0.5537109375,0.0263671875-1.0810546875q0-1.91162109375,0.138427734375-3.81005859375t0.191162109375-3.81005859375q0.0791015625-2.1884765625,0.14501953125-4.33740234375t0.263671875-4.32421875q0.052734375-0.54052734375,0.309814453125-0.705322265625t0.771240234375-0.164794921875q0.2373046875,0,0.6328125,0.09228515625t0.3955078125,0.4482421875q0.1845703125,0.0263671875,0.369140625,0.0263671875q0.27685546875,0,0.56689453125-0.052734375q0.474609375-0.0791015625,0.968994140625-0.177978515625t0.982177734375-0.191162109375t0.93603515625-0.09228515625q0.10546875,0,0.296630859375,0.01318359375t0.38232421875,0.0791015625t0.322998046875,0.164794921875t0.1318359375,0.257080078125t-0.309814453125,0.283447265625t-0.810791015625,0.217529296875t-1.0810546875,0.158203125t-1.1337890625,0.112060546875t-0.982177734375,0.072509765625t-0.613037109375,0.0263671875l-0.0263671875,4.95703125l0.0263671875,2.46533203125q0.40869140625,0,1.22607421875-0.0263671875q0.32958984375-0.01318359375,0.6591796875-0.01318359375q0.5009765625,0,1.0283203125,0.0263671875q0.8701171875,0.03955078125,1.56884765625,0.158203125t0.88330078125,0.421875q0,0.1845703125-0.191162109375,0.296630859375t-0.428466796875,0.164794921875t-0.481201171875,0.06591796875t-0.349365234375,0.01318359375q-0.9755859375,0-1.96435546875-0.03955078125t-1.951171875-0.158203125q0,1.62158203125-0.085693359375,3.216796875t-0.085693359375,3.216796875q0,0.69873046875,0.01318359375,1.377685546875t0.158203125,1.351318359375q0.35595703125-0.0263671875,0.771240234375-0.06591796875t0.84375-0.098876953125t0.823974609375-0.098876953125t0.685546875-0.03955078125q0.158203125,0,0.428466796875,0.03955078125t0.5537109375,0.1318359375t0.48779296875,0.230712890625t0.204345703125,0.322998046875q0,0.2109375-0.388916015625,0.375732421875t-0.995361328125,0.263671875t-1.324951171875,0.138427734375t-1.390869140625,0.052734375t-1.212890625,0.01318359375l-0.7646484375,0q-0.72509765625,0-1.061279296875-0.270263671875t-0.468017578125-0.705322265625q-0.10546875-0.35595703125-0.09228515625-0.80419921875l0-0.1845703125z"/><path fill="#" d=""/></svg>
